<?xml version="1.0" encoding="UTF-8"?>
<svg version="1.1" xmlns="http://www.w3.org/2000/svg" width="1000" height="1000">
<path d="M0 0 C0.9478537 -0.00701431 1.8957074 -0.01402863 2.87228394 -0.02125549 C5.93052968 -0.03871113 8.98858119 -0.04511231 12.046875 -0.046875 C13.6205484 -0.04788712 13.6205484 -0.04788712 15.22601318 -0.04891968 C43.46506169 -0.02013232 72.35882244 1.99544423 99.796875 9.203125 C99.796875 9.863125 99.796875 10.523125 99.796875 11.203125 C100.46589844 11.28949219 101.13492187 11.37585938 101.82421875 11.46484375 C112.11717987 12.97079377 121.94473455 15.91907818 131.796875 19.203125 C131.796875 19.863125 131.796875 20.523125 131.796875 21.203125 C132.76753906 21.30496094 133.73820312 21.40679687 134.73828125 21.51171875 C139.28941037 22.16188005 143.43686963 23.67845721 147.734375 25.265625 C148.51361328 25.54728516 149.29285156 25.82894531 150.09570312 26.11914062 C151.99827625 26.80780206 153.89789225 27.50462403 155.796875 28.203125 C155.796875 28.863125 155.796875 29.523125 155.796875 30.203125 C156.80041016 30.33654297 156.80041016 30.33654297 157.82421875 30.47265625 C161.62665159 31.40702542 164.90605362 33.09900574 168.359375 34.890625 C169.79414629 35.62394165 171.22904312 36.3570127 172.6640625 37.08984375 C173.36756836 37.45126465 174.07107422 37.81268555 174.79589844 38.18505859 C177.50627228 39.56405554 180.24718385 40.87832448 182.984375 42.203125 C188.48300003 44.9449462 193.66833456 48.10711036 198.86328125 51.375 C201.22882231 52.84913211 203.60398171 54.2392796 206.046875 55.578125 C208.796875 57.203125 208.796875 57.203125 209.796875 59.203125 C211.18112004 60.06970816 212.60475939 60.87420263 214.046875 61.640625 C215.25923828 62.29804688 215.25923828 62.29804688 216.49609375 62.96875 C217.25535156 63.37609375 218.01460937 63.7834375 218.796875 64.203125 C221.859375 65.890625 221.859375 65.890625 223.796875 67.203125 C223.796875 67.863125 223.796875 68.523125 223.796875 69.203125 C224.3125 69.43 224.828125 69.656875 225.359375 69.890625 C228.69234505 71.68530118 231.94391171 73.70277515 234.796875 76.203125 C234.796875 76.863125 234.796875 77.523125 234.796875 78.203125 C235.456875 78.203125 236.116875 78.203125 236.796875 78.203125 C236.796875 78.863125 236.796875 79.523125 236.796875 80.203125 C237.51875 80.450625 238.240625 80.698125 238.984375 80.953125 C242.62782267 82.57243508 245.39815714 84.78481725 248.19140625 87.6171875 C250.63983093 90.03582599 253.31310403 92.18590783 255.95703125 94.38671875 C257.796875 96.203125 257.796875 96.203125 258.79296875 98.30078125 C260.07462177 100.72943892 261.35094848 101.06138321 263.796875 102.203125 C265.32421875 103.7890625 265.32421875 103.7890625 266.734375 105.578125 C269.17903206 108.55851295 271.76637657 110.81062624 274.796875 113.203125 C278.796875 117.74366554 278.796875 117.74366554 278.796875 120.203125 C279.38984375 120.450625 279.9828125 120.698125 280.59375 120.953125 C283.14516366 122.40073559 284.31366862 123.8473105 286.046875 126.203125 C286.64628906 127.00234375 287.24570312 127.8015625 287.86328125 128.625 C288.82041016 129.90117187 288.82041016 129.90117187 289.796875 131.203125 C291.18604812 132.95841664 292.58186288 134.70847305 293.984375 136.453125 C294.93376953 137.63648438 294.93376953 137.63648438 295.90234375 138.84375 C297.19302543 140.4511144 298.49291067 142.05112168 299.80078125 143.64453125 C301.87997874 146.30964741 303.7281339 149.04204118 305.546875 151.890625 C306.16046875 152.84324219 306.7740625 153.79585937 307.40625 154.77734375 C308.796875 157.203125 308.796875 157.203125 308.796875 159.203125 C309.456875 159.203125 310.116875 159.203125 310.796875 159.203125 C312.25523649 161.32129486 313.56968612 163.42150015 314.859375 165.640625 C315.24988037 166.30280029 315.64038574 166.96497559 316.04272461 167.6472168 C319.09449991 172.87526309 322.00772384 178.17615601 324.859375 183.515625 C325.25326416 184.25031006 325.64715332 184.98499512 326.05297852 185.74194336 C328.796875 190.95663547 328.796875 190.95663547 328.796875 193.203125 C329.456875 193.203125 330.116875 193.203125 330.796875 193.203125 C332.21716508 196.32649019 333.63241189 199.45211718 335.046875 202.578125 C335.64048828 203.88330078 335.64048828 203.88330078 336.24609375 205.21484375 C339.799756 213.07950611 343.05163464 221.0463445 346.046875 229.140625 C346.38203125 230.03652344 346.7171875 230.93242187 347.0625 231.85546875 C347.796875 234.203125 347.796875 234.203125 347.796875 237.203125 C348.456875 237.203125 349.116875 237.203125 349.796875 237.203125 C350.94261794 241.40062739 352.08174898 245.59985165 353.21484375 249.80078125 C353.60106027 251.22900477 353.9890648 252.65674604 354.37890625 254.08398438 C354.93963252 256.13807347 355.49386071 258.19382311 356.046875 260.25 C356.38203125 261.48588867 356.7171875 262.72177734 357.0625 263.99511719 C357.796875 267.203125 357.796875 267.203125 357.796875 271.203125 C358.456875 271.203125 359.116875 271.203125 359.796875 271.203125 C361.81603098 279.54149136 363.07860655 287.96918339 364.296875 296.453125 C364.40703949 297.21757935 364.51720398 297.98203369 364.63070679 298.76965332 C367.48114156 318.76036312 369.45101047 338.99033901 368.796875 359.203125 C368.77855055 360.64973838 368.76032884 362.09635306 368.7421875 363.54296875 C368.46051536 376.51416553 366.97514904 389.33518506 365.421875 402.203125 C365.26436264 403.52796906 365.26436264 403.52796906 365.10366821 404.87957764 C363.83452997 415.46330383 362.27772304 425.82437371 359.796875 436.203125 C359.136875 436.203125 358.476875 436.203125 357.796875 436.203125 C357.74623901 437.07710937 357.74623901 437.07710937 357.69458008 437.96875 C357.15329117 445.0214464 355.52881547 451.44832798 353.484375 458.203125 C353.18853516 459.21890625 352.89269531 460.2346875 352.58789062 461.28125 C350.90167261 466.96267572 348.97918103 472.4572648 346.71850586 477.93457031 C344.96391604 482.25341762 343.53580878 486.68667164 342.04296875 491.1015625 C340.796875 494.203125 340.796875 494.203125 339.375 496.0703125 C336.92519687 499.38118505 335.62289999 503.14245456 334.109375 506.953125 C333.62887695 508.14228516 333.62887695 508.14228516 333.13867188 509.35546875 C332.35279539 511.30256572 331.5741176 513.25256549 330.796875 515.203125 C330.136875 515.203125 329.476875 515.203125 328.796875 515.203125 C328.63832031 515.74839844 328.47976563 516.29367187 328.31640625 516.85546875 C325.64554694 525.4878041 321.27780251 532.61827939 316.22265625 540.05078125 C314.25493872 543.02122607 312.52118324 546.08610625 310.796875 549.203125 C310.136875 549.203125 309.476875 549.203125 308.796875 549.203125 C308.549375 550.09 308.301875 550.976875 308.046875 551.890625 C306.74549077 555.33929322 305.1526238 557.4056733 302.796875 560.203125 C302.08801606 561.51451404 301.40231048 562.84089517 300.796875 564.203125 C300.136875 564.203125 299.476875 564.203125 298.796875 564.203125 C298.53003906 564.77933594 298.26320313 565.35554687 297.98828125 565.94921875 C295.80527185 570.07904308 292.71256842 573.57100405 289.796875 577.203125 C289.08917969 578.08742188 288.38148438 578.97171875 287.65234375 579.8828125 C279.99979042 589.34463851 272.12784722 598.65620441 262.859375 606.578125 C259.53748179 609.42993898 256.78301613 612.44755419 254.12109375 615.91796875 C252.796875 617.203125 252.796875 617.203125 249.796875 617.203125 C249.466875 618.193125 249.136875 619.183125 248.796875 620.203125 C248.136875 620.203125 247.476875 620.203125 246.796875 620.203125 C246.55582031 620.80253906 246.31476562 621.40195312 246.06640625 622.01953125 C244.53965435 624.64554452 243.06712507 625.57361193 240.484375 627.140625 C236.76326683 629.50049711 233.87797682 632.03875016 230.796875 635.203125 C228.80279423 636.54529475 226.80386475 637.8803363 224.796875 639.203125 C224.466875 639.863125 224.136875 640.523125 223.796875 641.203125 C222.41262996 642.06970816 220.98899061 642.87420263 219.546875 643.640625 C218.73347656 644.08148437 217.92007813 644.52234375 217.08203125 644.9765625 C216.32792969 645.38132812 215.57382812 645.78609375 214.796875 646.203125 C212.13435665 647.68230186 210.12121015 648.85562306 208.046875 651.078125 C204.71517238 654.22473303 199.54113503 658.203125 194.796875 658.203125 C194.796875 658.863125 194.796875 659.523125 194.796875 660.203125 C192.00816323 661.54270421 189.21544438 662.87370935 186.421875 664.203125 C185.23078125 664.77546875 185.23078125 664.77546875 184.015625 665.359375 C183.25507812 665.7203125 182.49453125 666.08125 181.7109375 666.453125 C181.0092041 666.78828125 180.3074707 667.1234375 179.58447266 667.46875 C177.796875 668.203125 177.796875 668.203125 175.796875 668.203125 C175.796875 668.863125 175.796875 669.523125 175.796875 670.203125 C163.98711706 676.28515034 163.98711706 676.28515034 157.703125 678.5 C155.62217261 679.26756441 153.62695215 680.15705717 151.609375 681.078125 C145.77090416 683.71096383 139.78842544 685.94637977 133.796875 688.203125 C132.90097656 688.55503906 132.00507812 688.90695312 131.08203125 689.26953125 C125.18599388 691.53041776 119.22276873 693.17971753 113.08666992 694.63525391 C109.06968327 695.59732291 105.16732485 696.71267306 101.24194336 698.01074219 C87.19410215 702.55993641 72.383958 704.23019579 57.796875 706.203125 C56.82153809 706.33879883 55.84620117 706.47447266 54.84130859 706.61425781 C27.77404328 710.23001668 -1.14902569 709.45144954 -28.203125 706.203125 C-29.24098145 706.0901709 -30.27883789 705.9772168 -31.34814453 705.86083984 C-46.15196465 704.22279309 -60.42488827 701.41060976 -74.828125 697.703125 C-75.57510651 697.51185028 -76.32208801 697.32057556 -77.09170532 697.12350464 C-84.62693633 695.17683134 -92.02505538 693.13124168 -99.19458008 690.05419922 C-101.88758182 688.91310233 -104.6417091 688.03044556 -107.421875 687.12890625 C-111.38783718 685.80877558 -115.32536471 684.41031406 -119.265625 683.015625 C-120.04107666 682.74121582 -120.81652832 682.46680664 -121.61547852 682.18408203 C-123.47824667 681.52438199 -125.34071712 680.86384146 -127.203125 680.203125 C-127.203125 679.543125 -127.203125 678.883125 -127.203125 678.203125 C-128.3375 677.873125 -129.471875 677.543125 -130.640625 677.203125 C-142.35156117 673.29947961 -153.48260074 667.24256265 -164.203125 661.203125 C-164.863125 660.873125 -165.523125 660.543125 -166.203125 660.203125 C-166.203125 659.543125 -166.203125 658.883125 -166.203125 658.203125 C-166.91855469 657.935 -167.63398438 657.666875 -168.37109375 657.390625 C-171.24441439 656.18581193 -173.83650126 654.79075388 -176.515625 653.203125 C-177.39863281 652.6875 -178.28164063 652.171875 -179.19140625 651.640625 C-179.85527344 651.16625 -180.51914062 650.691875 -181.203125 650.203125 C-181.203125 649.543125 -181.203125 648.883125 -181.203125 648.203125 C-182.04037109 648.04070312 -182.04037109 648.04070312 -182.89453125 647.875 C-189.70736616 645.89224602 -195.40760933 641.2650582 -200.203125 636.203125 C-201.29625 635.48125 -202.389375 634.759375 -203.515625 634.015625 C-204.4025 633.4175 -205.289375 632.819375 -206.203125 632.203125 C-206.203125 631.543125 -206.203125 630.883125 -206.203125 630.203125 C-206.76515625 629.9453125 -207.3271875 629.6875 -207.90625 629.421875 C-210.47017079 628.06142723 -212.65538865 626.47523538 -214.953125 624.703125 C-215.75234375 624.0946875 -216.5515625 623.48625 -217.375 622.859375 C-217.97828125 622.3128125 -218.5815625 621.76625 -219.203125 621.203125 C-219.203125 620.543125 -219.203125 619.883125 -219.203125 619.203125 C-220.193125 619.203125 -221.183125 619.203125 -222.203125 619.203125 C-222.203125 618.543125 -222.203125 617.883125 -222.203125 617.203125 C-222.780625 616.955625 -223.358125 616.708125 -223.953125 616.453125 C-226.53252479 615.02012512 -228.26434092 613.41887824 -230.203125 611.203125 C-230.203125 610.543125 -230.203125 609.883125 -230.203125 609.203125 C-231.10224609 608.81253906 -231.10224609 608.81253906 -232.01953125 608.4140625 C-234.35250874 607.12028249 -235.50090281 605.90843736 -237.140625 603.828125 C-239.57414469 600.84969505 -242.18758435 598.59781905 -245.203125 596.203125 C-245.203125 595.543125 -245.203125 594.883125 -245.203125 594.203125 C-245.863125 594.203125 -246.523125 594.203125 -247.203125 594.203125 C-251.61369253 589.92896677 -255.24714204 584.87914936 -258.8671875 579.9375 C-260.23337548 578.0777914 -260.23337548 578.0777914 -262.265625 576.203125 C-264.61984409 573.77296336 -266.17128408 571.12306606 -267.859375 568.203125 C-269.16857814 566.11296992 -269.16857814 566.11296992 -271.1171875 564.3046875 C-278.6808701 556.6843481 -285.40525409 545.2657082 -289.203125 535.203125 C-289.863125 535.203125 -290.523125 535.203125 -291.203125 535.203125 C-292.54131998 532.5805018 -293.8738401 529.95525901 -295.203125 527.328125 C-295.77546875 526.20857422 -295.77546875 526.20857422 -296.359375 525.06640625 C-296.7203125 524.35097656 -297.08125 523.63554688 -297.453125 522.8984375 C-297.78828125 522.23859863 -298.1234375 521.57875977 -298.46875 520.89892578 C-299.203125 519.203125 -299.203125 519.203125 -299.203125 517.203125 C-299.863125 517.203125 -300.523125 517.203125 -301.203125 517.203125 C-302.54225085 514.08057557 -303.87343158 510.95470142 -305.203125 507.828125 C-305.5846875 506.93867187 -305.96625 506.04921875 -306.359375 505.1328125 C-306.90078125 503.85664062 -306.90078125 503.85664062 -307.453125 502.5546875 C-307.78828125 501.76916504 -308.1234375 500.98364258 -308.46875 500.17431641 C-309.203125 498.203125 -309.203125 498.203125 -309.203125 496.203125 C-309.863125 496.203125 -310.523125 496.203125 -311.203125 496.203125 C-317.83113165 478.96012441 -324.45780427 461.69857386 -328.5625 443.6484375 C-329.13940803 441.19801503 -329.13940803 441.19801503 -330.1640625 438.96875 C-331.65186922 435.00872309 -332.33548122 430.98466256 -333.078125 426.828125 C-333.24739502 425.89436035 -333.41666504 424.9605957 -333.59106445 423.99853516 C-335.36363513 413.86606066 -336.64623266 403.67105507 -337.89599609 393.46337891 C-338.05277832 392.18897949 -338.20956055 390.91458008 -338.37109375 389.6015625 C-338.50797607 388.46380371 -338.6448584 387.32604492 -338.78588867 386.15380859 C-339.11481571 383.36314738 -339.11481571 383.36314738 -339.72111511 381.34443665 C-340.28522463 378.83840035 -340.33027799 376.56061414 -340.33251953 373.99145508 C-340.33567169 372.95390579 -340.33882385 371.91635651 -340.34207153 370.84736633 C-340.3400473 369.73371201 -340.33802307 368.62005768 -340.3359375 367.47265625 C-340.33689423 366.32649338 -340.33785095 365.18033051 -340.33883667 363.99943542 C-340.33951678 361.57945704 -340.33767428 359.15947682 -340.33349609 356.73950195 C-340.32813081 353.0196528 -340.33345437 349.29992359 -340.33984375 345.58007812 C-340.33918323 343.23177057 -340.3379026 340.88346308 -340.3359375 338.53515625 C-340.33796173 337.41542923 -340.33998596 336.29570221 -340.34207153 335.14204407 C-340.33891937 334.11395126 -340.33576721 333.08585846 -340.33251953 332.02661133 C-340.33172394 331.11712234 -340.33092834 330.20763336 -340.33010864 329.27058411 C-340.203125 327.203125 -340.203125 327.203125 -339.203125 326.203125 C-338.96276319 324.54788892 -338.78177479 322.88398331 -338.625 321.21875 C-338.46559937 319.61870117 -338.46559937 319.61870117 -338.30297852 317.98632812 C-338.18752686 316.82037109 -338.0720752 315.65441406 -337.953125 314.453125 C-336.86460342 304.14651148 -335.48968617 293.92302064 -333.765625 283.703125 C-333.57258789 282.51879883 -333.37955078 281.33447266 -333.18066406 280.11425781 C-332.07176676 273.73764607 -330.52968801 267.90573929 -328.19116211 261.87402344 C-326.19361975 256.4741931 -324.90729002 250.85222568 -323.4921875 245.27734375 C-322.12352349 240.06023202 -320.46874341 235.27567945 -318.18457031 230.39111328 C-316.22466051 226.02178202 -314.81551666 221.43798894 -313.31640625 216.89453125 C-311.41470865 211.30891682 -311.41470865 211.30891682 -309.203125 210.203125 C-308.28941258 208.51255034 -308.28941258 208.51255034 -307.51171875 206.45703125 C-307.20685547 205.70228516 -306.90199219 204.94753906 -306.58789062 204.16992188 C-306.27529297 203.37650391 -305.96269531 202.58308594 -305.640625 201.765625 C-305.01479544 200.20423761 -304.38851412 198.64303119 -303.76171875 197.08203125 C-303.48642334 196.3866626 -303.21112793 195.69129395 -302.92749023 194.97485352 C-302.203125 193.203125 -302.203125 193.203125 -301.203125 191.203125 C-300.543125 191.203125 -299.883125 191.203125 -299.203125 191.203125 C-299.04457031 190.65785156 -298.88601563 190.11257813 -298.72265625 189.55078125 C-296.89444217 183.64191253 -294.37391376 178.50448328 -291.203125 173.203125 C-290.543125 173.203125 -289.883125 173.203125 -289.203125 173.203125 C-288.93886719 172.32140625 -288.67460937 171.4396875 -288.40234375 170.53125 C-284.20182687 158.87378948 -274.82868935 148.00005787 -267 138.52734375 C-265.14060624 136.21644299 -265.14060624 136.21644299 -263.6171875 133.55859375 C-261.86528102 130.64036279 -259.60800418 128.60800418 -257.203125 126.203125 C-256.28751913 124.94646251 -255.39176552 123.6751142 -254.515625 122.390625 C-253.7525 121.33875 -252.989375 120.286875 -252.203125 119.203125 C-251.543125 119.203125 -250.883125 119.203125 -250.203125 119.203125 C-250.203125 118.543125 -250.203125 117.883125 -250.203125 117.203125 C-249.543125 117.203125 -248.883125 117.203125 -248.203125 117.203125 C-247.831875 116.336875 -247.831875 116.336875 -247.453125 115.453125 C-246.02012512 112.87372521 -244.41887824 111.14190908 -242.203125 109.203125 C-241.543125 109.203125 -240.883125 109.203125 -240.203125 109.203125 C-239.81157227 108.32479004 -239.81157227 108.32479004 -239.41210938 107.42871094 C-238.12920357 105.06704508 -236.75245409 103.49399209 -234.859375 101.59375 C-234.19462158 100.92496826 -233.52986816 100.25618652 -232.8449707 99.56713867 C-232.13816162 98.86951416 -231.43135254 98.17188965 -230.703125 97.453125 C-229.98278076 96.73809814 -229.26243652 96.02307129 -228.52026367 95.28637695 C-222.64443453 89.51449821 -216.70441295 83.82832386 -209.55078125 79.65625 C-207.04788374 78.2981109 -207.04788374 78.2981109 -205.328125 75.765625 C-202.61338015 72.49196209 -199.93183567 71.23696719 -196.203125 69.203125 C-195.19901828 68.20724866 -194.19940064 67.20683554 -193.203125 66.203125 C-191.70655783 65.10670948 -190.18386988 64.04530239 -188.640625 63.015625 C-187.85558594 62.48582031 -187.07054687 61.95601562 -186.26171875 61.41015625 C-184.203125 60.203125 -184.203125 60.203125 -182.203125 60.203125 C-181.873125 59.543125 -181.543125 58.883125 -181.203125 58.203125 C-177.18570609 54.84974227 -171.56116893 50.203125 -166.203125 50.203125 C-166.203125 49.543125 -166.203125 48.883125 -166.203125 48.203125 C-137.73443877 33.12778361 -137.73443877 33.12778361 -128.203125 29.203125 C-127.130625 28.72875 -126.058125 28.254375 -124.953125 27.765625 C-121.13737932 26.12789345 -117.2355586 24.75765024 -113.32421875 23.3671875 C-109.92472312 22.09929051 -106.60653624 20.68034311 -103.265625 19.265625 C-97.14571895 16.73638572 -90.93716625 14.93075117 -84.515625 13.328125 C-83.65396729 13.11293213 -82.79230957 12.89773926 -81.90454102 12.67602539 C-78.15353133 11.77740408 -75.10140195 11.203125 -71.203125 11.203125 C-71.203125 10.543125 -71.203125 9.883125 -71.203125 9.203125 C-58.82864022 6.80724123 -46.44146688 4.73044686 -33.953125 3.015625 C-32.74116455 2.84901367 -31.5292041 2.68240234 -30.28051758 2.51074219 C-20.16388108 1.14795898 -10.21460524 0.05095454 0 0 Z " fill="#3776FD" transform="translate(486.203125,145.796875)"/>
<path d="M0 0 C0.9478537 -0.00701431 1.8957074 -0.01402863 2.87228394 -0.02125549 C5.93052968 -0.03871113 8.98858119 -0.04511231 12.046875 -0.046875 C13.6205484 -0.04788712 13.6205484 -0.04788712 15.22601318 -0.04891968 C43.46506169 -0.02013232 72.35882244 1.99544423 99.796875 9.203125 C99.796875 9.863125 99.796875 10.523125 99.796875 11.203125 C100.46589844 11.28949219 101.13492187 11.37585938 101.82421875 11.46484375 C112.11717987 12.97079377 121.94473455 15.91907818 131.796875 19.203125 C131.796875 19.863125 131.796875 20.523125 131.796875 21.203125 C132.76753906 21.30496094 133.73820312 21.40679687 134.73828125 21.51171875 C139.28941037 22.16188005 143.43686963 23.67845721 147.734375 25.265625 C148.51361328 25.54728516 149.29285156 25.82894531 150.09570312 26.11914062 C151.99827625 26.80780206 153.89789225 27.50462403 155.796875 28.203125 C155.796875 28.863125 155.796875 29.523125 155.796875 30.203125 C156.80041016 30.33654297 156.80041016 30.33654297 157.82421875 30.47265625 C161.62665159 31.40702542 164.90605362 33.09900574 168.359375 34.890625 C169.79414629 35.62394165 171.22904312 36.3570127 172.6640625 37.08984375 C173.36756836 37.45126465 174.07107422 37.81268555 174.79589844 38.18505859 C177.50627228 39.56405554 180.24718385 40.87832448 182.984375 42.203125 C188.48300003 44.9449462 193.66833456 48.10711036 198.86328125 51.375 C201.22882231 52.84913211 203.60398171 54.2392796 206.046875 55.578125 C208.796875 57.203125 208.796875 57.203125 209.796875 59.203125 C211.18112004 60.06970816 212.60475939 60.87420263 214.046875 61.640625 C215.25923828 62.29804688 215.25923828 62.29804688 216.49609375 62.96875 C217.25535156 63.37609375 218.01460937 63.7834375 218.796875 64.203125 C221.859375 65.890625 221.859375 65.890625 223.796875 67.203125 C223.796875 67.863125 223.796875 68.523125 223.796875 69.203125 C224.3125 69.43 224.828125 69.656875 225.359375 69.890625 C228.69234505 71.68530118 231.94391171 73.70277515 234.796875 76.203125 C234.796875 76.863125 234.796875 77.523125 234.796875 78.203125 C235.456875 78.203125 236.116875 78.203125 236.796875 78.203125 C236.796875 78.863125 236.796875 79.523125 236.796875 80.203125 C237.51875 80.450625 238.240625 80.698125 238.984375 80.953125 C242.62782267 82.57243508 245.39815714 84.78481725 248.19140625 87.6171875 C250.63983093 90.03582599 253.31310403 92.18590783 255.95703125 94.38671875 C257.796875 96.203125 257.796875 96.203125 258.79296875 98.30078125 C260.07462177 100.72943892 261.35094848 101.06138321 263.796875 102.203125 C265.32421875 103.7890625 265.32421875 103.7890625 266.734375 105.578125 C269.17903206 108.55851295 271.76637657 110.81062624 274.796875 113.203125 C278.796875 117.74366554 278.796875 117.74366554 278.796875 120.203125 C279.38984375 120.450625 279.9828125 120.698125 280.59375 120.953125 C283.14516366 122.40073559 284.31366862 123.8473105 286.046875 126.203125 C286.64628906 127.00234375 287.24570312 127.8015625 287.86328125 128.625 C288.82041016 129.90117187 288.82041016 129.90117187 289.796875 131.203125 C291.18604812 132.95841664 292.58186288 134.70847305 293.984375 136.453125 C294.93376953 137.63648438 294.93376953 137.63648438 295.90234375 138.84375 C297.19302543 140.4511144 298.49291067 142.05112168 299.80078125 143.64453125 C301.87997874 146.30964741 303.7281339 149.04204118 305.546875 151.890625 C306.16046875 152.84324219 306.7740625 153.79585937 307.40625 154.77734375 C308.796875 157.203125 308.796875 157.203125 308.796875 159.203125 C309.456875 159.203125 310.116875 159.203125 310.796875 159.203125 C312.25523649 161.32129486 313.56968612 163.42150015 314.859375 165.640625 C315.24988037 166.30280029 315.64038574 166.96497559 316.04272461 167.6472168 C319.09449991 172.87526309 322.00772384 178.17615601 324.859375 183.515625 C325.25326416 184.25031006 325.64715332 184.98499512 326.05297852 185.74194336 C328.796875 190.95663547 328.796875 190.95663547 328.796875 193.203125 C329.456875 193.203125 330.116875 193.203125 330.796875 193.203125 C332.21716508 196.32649019 333.63241189 199.45211718 335.046875 202.578125 C335.64048828 203.88330078 335.64048828 203.88330078 336.24609375 205.21484375 C339.799756 213.07950611 343.05163464 221.0463445 346.046875 229.140625 C346.38203125 230.03652344 346.7171875 230.93242187 347.0625 231.85546875 C347.796875 234.203125 347.796875 234.203125 347.796875 237.203125 C348.456875 237.203125 349.116875 237.203125 349.796875 237.203125 C350.94261794 241.40062739 352.08174898 245.59985165 353.21484375 249.80078125 C353.60106027 251.22900477 353.9890648 252.65674604 354.37890625 254.08398438 C354.93963252 256.13807347 355.49386071 258.19382311 356.046875 260.25 C356.38203125 261.48588867 356.7171875 262.72177734 357.0625 263.99511719 C357.796875 267.203125 357.796875 267.203125 357.796875 271.203125 C358.456875 271.203125 359.116875 271.203125 359.796875 271.203125 C361.71320027 279.0654315 362.92640603 287.01021231 364.08398438 295.01171875 C364.41831359 297.30370978 364.76757699 299.59310989 365.1171875 301.8828125 C366.52483687 311.40541814 367.09996949 320.573228 366.796875 330.203125 C366.136875 330.203125 365.476875 330.203125 364.796875 330.203125 C364.549375 328.945 364.301875 327.686875 364.046875 326.390625 C363.22703741 322.64532378 362.09699394 319.16057406 360.734375 315.578125 C359.15041488 311.3915241 358.19249129 307.65380827 357.796875 303.203125 C357.136875 303.203125 356.476875 303.203125 355.796875 303.203125 C355.36375 302.31625 354.930625 301.429375 354.484375 300.515625 C352.88627621 297.25658637 352.88627621 297.25658637 351.109375 294.515625 C349.796875 292.203125 349.796875 292.203125 349.796875 289.203125 C348.806875 288.873125 347.816875 288.543125 346.796875 288.203125 C345.41015625 286.42578125 345.41015625 286.42578125 344.109375 284.265625 C343.45388672 283.20021484 343.45388672 283.20021484 342.78515625 282.11328125 C341.796875 280.203125 341.796875 280.203125 341.796875 278.203125 C341.136875 278.203125 340.476875 278.203125 339.796875 278.203125 C338.46484375 276.62890625 338.46484375 276.62890625 336.984375 274.515625 C333.54478013 269.78825911 329.7067961 265.95234609 325.234375 262.203125 C323.08033532 260.39261751 321.49154128 258.81451845 319.734375 256.578125 C317.43281818 253.7568618 314.83178339 252.18241308 311.796875 250.203125 C311.136875 249.213125 310.476875 248.223125 309.796875 247.203125 C308.13466919 246.19572754 306.46666826 245.19789545 304.796875 244.203125 C302.52998909 242.47519019 300.30078389 240.70626312 298.078125 238.921875 C295.73386124 237.15564888 293.32243707 235.69636834 290.796875 234.203125 C287.79625918 232.20002211 284.81360436 230.17194191 281.83203125 228.140625 C278.89431813 226.26532808 275.93085879 224.72108178 272.796875 223.203125 C271.45815947 222.46277474 270.1244511 221.71326938 268.796875 220.953125 C255.59391916 213.58609754 241.95562436 207.69849757 227.8046875 202.4140625 C224.796875 201.203125 224.796875 201.203125 221.921875 199.73046875 C218.25253059 197.93707667 214.54966694 196.65212695 210.671875 195.390625 C209.89924316 195.13635742 209.12661133 194.88208984 208.33056641 194.62011719 C202.30136965 192.65341902 196.24395482 190.78270115 190.171875 188.953125 C188.94766846 188.58417114 188.94766846 188.58417114 187.69873047 188.20776367 C177.78811081 185.25858626 167.72060462 183.00769394 157.63647461 180.74414062 C156.04700011 180.38614942 154.4581191 180.02551188 152.86987305 179.66210938 C143.65877769 177.55540288 134.56250048 175.77309843 125.17626953 174.63476562 C121.2161646 174.12895248 117.31926709 173.41313945 113.39794922 172.671875 C108.90583799 171.86233365 104.38618618 171.28126683 99.859375 170.703125 C98.86502441 170.57566895 97.87067383 170.44821289 96.84619141 170.31689453 C71.61274535 167.13310412 46.60158214 165.9950013 21.171875 166.015625 C19.44389175 166.01553436 19.44389175 166.01553436 17.68099976 166.01544189 C-6.83756643 166.0336617 -31.35237813 166.66182539 -55.703125 169.765625 C-59.87259922 170.28680928 -64.04506409 170.64024694 -68.234375 170.95703125 C-70.27715725 171.10146608 -70.27715725 171.10146608 -72.203125 172.203125 C-74.78642215 172.52751163 -77.36368989 172.81374162 -79.953125 173.078125 C-86.55597459 173.80553997 -92.9552266 174.8794039 -99.4375 176.359375 C-103.02856661 177.16401233 -106.62582912 177.88513402 -110.23803711 178.58618164 C-125.8757509 181.62974325 -141.35461988 185.08712863 -156.51171875 190.0234375 C-160.05591415 191.15607984 -163.61396406 192.16139507 -167.203125 193.140625 C-175.05555426 195.36518453 -182.61469716 198.22545045 -190.203125 201.203125 C-191.01152832 201.51830078 -191.81993164 201.83347656 -192.65283203 202.15820312 C-202.99073477 206.19771243 -213.20865057 210.36574377 -223.203125 215.203125 C-224.48509766 215.81414062 -224.48509766 215.81414062 -225.79296875 216.4375 C-231.46723582 219.19843879 -236.89881587 222.30236041 -242.328125 225.515625 C-244.78591517 226.95824097 -247.26138193 228.34367876 -249.765625 229.703125 C-258.45316275 234.51033395 -266.4670404 239.99481294 -274.203125 246.203125 C-275.68061395 247.35112084 -277.15979762 248.49693871 -278.640625 249.640625 C-279.37796875 250.21683594 -280.1153125 250.79304687 -280.875 251.38671875 C-282.50416398 252.65779468 -284.1401803 253.92011428 -285.78125 255.17578125 C-290.89339393 259.14764158 -295.15215795 263.17126341 -299.203125 268.203125 C-301.453125 270.640625 -301.453125 270.640625 -303.203125 272.203125 C-303.863125 272.203125 -304.523125 272.203125 -305.203125 272.203125 C-305.6053125 273.0384375 -305.6053125 273.0384375 -306.015625 273.890625 C-308.29147707 278.32254744 -310.61329124 281.73295236 -314.203125 285.203125 C-314.533125 285.863125 -314.863125 286.523125 -315.203125 287.203125 C-315.863125 287.203125 -316.523125 287.203125 -317.203125 287.203125 C-317.5125 288.4096875 -317.5125 288.4096875 -317.828125 289.640625 C-319.31886575 293.50299877 -321.28640528 296.45380994 -323.6171875 299.84765625 C-327.96224839 306.30103487 -331.0771425 312.72896776 -333.203125 320.203125 C-333.698125 321.92595703 -333.698125 321.92595703 -334.203125 323.68359375 C-336.36259255 331.47196753 -338.07053436 339.20047795 -339.203125 347.203125 C-339.533125 347.203125 -339.863125 347.203125 -340.203125 347.203125 C-340.23200646 343.89064313 -340.24988299 340.57819333 -340.265625 337.265625 C-340.27400391 336.32009766 -340.28238281 335.37457031 -340.29101562 334.40039062 C-340.29423828 333.50126953 -340.29746094 332.60214844 -340.30078125 331.67578125 C-340.30601807 330.84312744 -340.31125488 330.01047363 -340.31665039 329.15258789 C-340.203125 327.203125 -340.203125 327.203125 -339.203125 326.203125 C-338.96276319 324.54788892 -338.78177479 322.88398331 -338.625 321.21875 C-338.46559937 319.61870117 -338.46559937 319.61870117 -338.30297852 317.98632812 C-338.18752686 316.82037109 -338.0720752 315.65441406 -337.953125 314.453125 C-336.86460342 304.14651148 -335.48968617 293.92302064 -333.765625 283.703125 C-333.57258789 282.51879883 -333.37955078 281.33447266 -333.18066406 280.11425781 C-332.07176676 273.73764607 -330.52968801 267.90573929 -328.19116211 261.87402344 C-326.19361975 256.4741931 -324.90729002 250.85222568 -323.4921875 245.27734375 C-322.12352349 240.06023202 -320.46874341 235.27567945 -318.18457031 230.39111328 C-316.22466051 226.02178202 -314.81551666 221.43798894 -313.31640625 216.89453125 C-311.41470865 211.30891682 -311.41470865 211.30891682 -309.203125 210.203125 C-308.28941258 208.51255034 -308.28941258 208.51255034 -307.51171875 206.45703125 C-307.20685547 205.70228516 -306.90199219 204.94753906 -306.58789062 204.16992188 C-306.27529297 203.37650391 -305.96269531 202.58308594 -305.640625 201.765625 C-305.01479544 200.20423761 -304.38851412 198.64303119 -303.76171875 197.08203125 C-303.48642334 196.3866626 -303.21112793 195.69129395 -302.92749023 194.97485352 C-302.203125 193.203125 -302.203125 193.203125 -301.203125 191.203125 C-300.543125 191.203125 -299.883125 191.203125 -299.203125 191.203125 C-299.04457031 190.65785156 -298.88601563 190.11257813 -298.72265625 189.55078125 C-296.89444217 183.64191253 -294.37391376 178.50448328 -291.203125 173.203125 C-290.543125 173.203125 -289.883125 173.203125 -289.203125 173.203125 C-288.93886719 172.32140625 -288.67460937 171.4396875 -288.40234375 170.53125 C-284.20182687 158.87378948 -274.82868935 148.00005787 -267 138.52734375 C-265.14060624 136.21644299 -265.14060624 136.21644299 -263.6171875 133.55859375 C-261.86528102 130.64036279 -259.60800418 128.60800418 -257.203125 126.203125 C-256.28751913 124.94646251 -255.39176552 123.6751142 -254.515625 122.390625 C-253.7525 121.33875 -252.989375 120.286875 -252.203125 119.203125 C-251.543125 119.203125 -250.883125 119.203125 -250.203125 119.203125 C-250.203125 118.543125 -250.203125 117.883125 -250.203125 117.203125 C-249.543125 117.203125 -248.883125 117.203125 -248.203125 117.203125 C-247.831875 116.336875 -247.831875 116.336875 -247.453125 115.453125 C-246.02012512 112.87372521 -244.41887824 111.14190908 -242.203125 109.203125 C-241.543125 109.203125 -240.883125 109.203125 -240.203125 109.203125 C-239.81157227 108.32479004 -239.81157227 108.32479004 -239.41210938 107.42871094 C-238.12920357 105.06704508 -236.75245409 103.49399209 -234.859375 101.59375 C-234.19462158 100.92496826 -233.52986816 100.25618652 -232.8449707 99.56713867 C-232.13816162 98.86951416 -231.43135254 98.17188965 -230.703125 97.453125 C-229.98278076 96.73809814 -229.26243652 96.02307129 -228.52026367 95.28637695 C-222.64443453 89.51449821 -216.70441295 83.82832386 -209.55078125 79.65625 C-207.04788374 78.2981109 -207.04788374 78.2981109 -205.328125 75.765625 C-202.61338015 72.49196209 -199.93183567 71.23696719 -196.203125 69.203125 C-195.19901828 68.20724866 -194.19940064 67.20683554 -193.203125 66.203125 C-191.70655783 65.10670948 -190.18386988 64.04530239 -188.640625 63.015625 C-187.85558594 62.48582031 -187.07054687 61.95601562 -186.26171875 61.41015625 C-184.203125 60.203125 -184.203125 60.203125 -182.203125 60.203125 C-181.873125 59.543125 -181.543125 58.883125 -181.203125 58.203125 C-177.18570609 54.84974227 -171.56116893 50.203125 -166.203125 50.203125 C-166.203125 49.543125 -166.203125 48.883125 -166.203125 48.203125 C-137.73443877 33.12778361 -137.73443877 33.12778361 -128.203125 29.203125 C-127.130625 28.72875 -126.058125 28.254375 -124.953125 27.765625 C-121.13737932 26.12789345 -117.2355586 24.75765024 -113.32421875 23.3671875 C-109.92472312 22.09929051 -106.60653624 20.68034311 -103.265625 19.265625 C-97.14571895 16.73638572 -90.93716625 14.93075117 -84.515625 13.328125 C-83.65396729 13.11293213 -82.79230957 12.89773926 -81.90454102 12.67602539 C-78.15353133 11.77740408 -75.10140195 11.203125 -71.203125 11.203125 C-71.203125 10.543125 -71.203125 9.883125 -71.203125 9.203125 C-58.82864022 6.80724123 -46.44146688 4.73044686 -33.953125 3.015625 C-32.74116455 2.84901367 -31.5292041 2.68240234 -30.28051758 2.51074219 C-20.16388108 1.14795898 -10.21460524 0.05095454 0 0 Z " fill="#3F82FC" transform="translate(486.203125,145.796875)"/>
<path d="M0 0 C0.66 0 1.32 0 2 0 C2.15855469 1.19753906 2.31710938 2.39507813 2.48046875 3.62890625 C4.45201977 17.69689551 7.29259476 30.81647281 15 43 C18 47.75862069 18 47.75862069 18 51 C18.66 51 19.32 51 20 51 C21.48046875 53.08984375 21.48046875 53.08984375 23.1875 55.9375 C28.47975777 64.48653178 34.23569804 72.11077391 42.0625 78.5 C44.79608408 80.82645453 46.79688837 83.18913344 49 86 C49.99 86.66 50.98 87.32 52 88 C52 88.66 52 89.32 52 90 C52.56847656 90.25652344 53.13695312 90.51304687 53.72265625 90.77734375 C56.2475633 92.13291134 58.23762462 93.72617907 60.4375 95.5625 C66.39052345 100.40042908 72.65788442 104.69985345 79 109 C79.7940625 109.55816406 80.588125 110.11632812 81.40625 110.69140625 C86.45306841 114.19309366 91.704576 116.94832032 97.2265625 119.6328125 C99.3747365 120.69177151 101.44008265 121.78414634 103.5 123 C112.92730993 128.52237028 122.9446994 132.81781202 133.08203125 136.8359375 C135.20882251 137.68437631 137.33057078 138.54548881 139.44921875 139.4140625 C150.60113989 143.97292177 161.90329051 147.85746521 173.46875 151.25 C176.53051256 152.15718891 179.57654103 153.11160454 182.625 154.0625 C186.67239392 155.30930513 190.70517816 156.50942726 194.82836914 157.47680664 C196.34922026 157.84321293 197.86584856 158.22739188 199.37890625 158.62475586 C207.70938902 160.79402898 216.10396247 162.46368135 224.55981445 164.05224609 C226.90370169 164.49363527 229.24580302 164.94370341 231.58789062 165.39453125 C250.57775118 169.01130486 269.62073454 171.45279281 288.875 173.125 C289.84535187 173.21060181 290.81570374 173.29620361 291.81546021 173.38439941 C308.88475102 174.87820461 325.86497588 175.77167298 343 176 C344.80339527 176.03992177 346.60678154 176.08025371 348.41015625 176.12109375 C373.07107861 176.52779914 399.30715805 175.91873709 423.6875 172.0625 C428.33011066 171.36094995 432.96218423 170.77619772 437.6315918 170.29907227 C445.85436194 169.45546567 453.85708408 168.18404831 461.9453125 166.43847656 C465.91486118 165.5913628 469.89536614 164.79812274 473.875 164 C474.71603271 163.83016602 475.55706543 163.66033203 476.42358398 163.48535156 C482.77310668 162.21410502 489.13870084 161.06425048 495.53271484 160.0390625 C499.26506993 159.41530159 502.53044816 158.49549648 506 157 C507.95684242 156.48672986 509.91463032 155.97571996 511.8828125 155.5078125 C513.29913294 155.16810465 514.71082729 154.80852254 516.1171875 154.4296875 C519.82931162 153.4351184 523.15187726 152.75949233 527 153 C527 152.34 527 151.68 527 151 C527.886875 150.7525 528.77375 150.505 529.6875 150.25 C562.47302617 140.82661523 594.39977188 127.77632705 623 109 C624.16808214 108.25594309 625.33742414 107.51386147 626.5078125 106.7734375 C632.21845384 103.15424163 637.88102343 99.52512316 643.2265625 95.375 C644.41200256 94.45589229 645.61568088 93.55985367 646.8359375 92.6875 C651.19455717 89.55640995 655.21881761 86.10839019 659.1875 82.5 C659.68668945 82.04923096 660.18587891 81.59846191 660.70019531 81.1340332 C664.1368678 77.96660102 667.05573924 74.61135903 670 71 C671.66666667 69.33333333 673.33333333 67.66666667 675 66 C675.90434686 64.90279531 676.80021996 63.79855154 677.6875 62.6875 C678.450625 61.800625 679.21375 60.91375 680 60 C680.66 60 681.32 60 682 60 C682.07734375 59.47921875 682.1546875 58.9584375 682.234375 58.421875 C683.31711604 54.99687784 685.27742022 52.21560337 687.25 49.25 C687.86343262 48.3074939 687.86343262 48.3074939 688.48925781 47.34594727 C690.14599008 44.80064593 691.81643263 42.26832679 693.53125 39.76171875 C698.88578449 31.74707899 701.97843721 22.37270023 704 13 C704.66 13 705.32 13 706 13 C705.938125 11.14375 705.938125 11.14375 705.875 9.25 C705.7625442 5.87632605 706.43055147 3.96511729 708 1 C708.39756141 11.39270895 707.32911076 21.43533198 706.02856445 31.72875977 C705.68869563 34.42800429 705.36399587 37.12876654 705.04101562 39.83007812 C703.83590092 49.6901999 702.32164863 59.33100444 700 69 C699.34 69 698.68 69 698 69 C697.94936401 69.87398437 697.94936401 69.87398437 697.89770508 70.765625 C697.35641617 77.8183214 695.73194047 84.24520298 693.6875 91 C693.39166016 92.01578125 693.09582031 93.0315625 692.79101562 94.078125 C691.10479761 99.75955072 689.18230603 105.2541398 686.92163086 110.73144531 C685.16704104 115.05029262 683.73893378 119.48354664 682.24609375 123.8984375 C681 127 681 127 679.578125 128.8671875 C677.12832187 132.17806005 675.82602499 135.93932956 674.3125 139.75 C673.99216797 140.54277344 673.67183594 141.33554687 673.34179688 142.15234375 C672.55592039 144.09944072 671.7772426 146.04944049 671 148 C670.34 148 669.68 148 669 148 C668.76216797 148.81791016 668.76216797 148.81791016 668.51953125 149.65234375 C665.84867194 158.2846791 661.48092751 165.41515439 656.42578125 172.84765625 C654.45806372 175.81810107 652.72430824 178.88298125 651 182 C650.34 182 649.68 182 649 182 C648.7525 182.886875 648.505 183.77375 648.25 184.6875 C646.94861577 188.13616822 645.3557488 190.2025483 643 193 C642.29114106 194.31138904 641.60543548 195.63777017 641 197 C640.34 197 639.68 197 639 197 C638.73316406 197.57621094 638.46632813 198.15242187 638.19140625 198.74609375 C636.00839685 202.87591808 632.91569342 206.36787905 630 210 C629.29230469 210.88429688 628.58460938 211.76859375 627.85546875 212.6796875 C620.20291542 222.14151351 612.33097222 231.45307941 603.0625 239.375 C599.74060679 242.22681398 596.98614113 245.24442919 594.32421875 248.71484375 C593 250 593 250 590 250 C589.67 250.99 589.34 251.98 589 253 C588.34 253 587.68 253 587 253 C586.75894531 253.59941406 586.51789062 254.19882812 586.26953125 254.81640625 C584.74277935 257.44241952 583.27025007 258.37048693 580.6875 259.9375 C576.96639183 262.29737211 574.08110182 264.83562516 571 268 C569.00591923 269.34216975 567.00698975 270.6772113 565 272 C564.67 272.66 564.34 273.32 564 274 C562.61575496 274.86658316 561.19211561 275.67107763 559.75 276.4375 C558.93660156 276.87835937 558.12320313 277.31921875 557.28515625 277.7734375 C556.53105469 278.17820312 555.77695312 278.58296875 555 279 C552.33748165 280.47917686 550.32433515 281.65249806 548.25 283.875 C544.91829738 287.02160803 539.74426003 291 535 291 C535 291.66 535 292.32 535 293 C532.21128823 294.33957921 529.41856938 295.67058435 526.625 297 C525.8309375 297.3815625 525.036875 297.763125 524.21875 298.15625 C523.45820312 298.5171875 522.69765625 298.878125 521.9140625 299.25 C521.2123291 299.58515625 520.5105957 299.9203125 519.78759766 300.265625 C518 301 518 301 516 301 C516 301.66 516 302.32 516 303 C504.19024206 309.08202534 504.19024206 309.08202534 497.90625 311.296875 C495.82529761 312.06443941 493.83007715 312.95393217 491.8125 313.875 C485.97402916 316.50783883 479.99155044 318.74325477 474 321 C473.10410156 321.35191406 472.20820312 321.70382812 471.28515625 322.06640625 C465.38911888 324.32729276 459.42589373 325.97659253 453.28979492 327.43212891 C449.27280827 328.39419791 445.37044985 329.50954806 441.44506836 330.80761719 C427.39722715 335.35681141 412.587083 337.02707079 398 339 C396.53699463 339.20351074 396.53699463 339.20351074 395.04443359 339.41113281 C367.97716828 343.02689168 339.05409931 342.24832454 312 339 C310.96214355 338.8870459 309.92428711 338.7740918 308.85498047 338.65771484 C294.05116035 337.01966809 279.77823673 334.20748476 265.375 330.5 C264.62801849 330.30872528 263.88103699 330.11745056 263.11141968 329.92037964 C255.57618867 327.97370634 248.17806962 325.92811668 241.00854492 322.85107422 C238.31554318 321.70997733 235.5614159 320.82732056 232.78125 319.92578125 C228.81528782 318.60565058 224.87776029 317.20718906 220.9375 315.8125 C220.16204834 315.53809082 219.38659668 315.26368164 218.58764648 314.98095703 C216.72487833 314.32125699 214.86240788 313.66071646 213 313 C213 312.34 213 311.68 213 311 C211.865625 310.67 210.73125 310.34 209.5625 310 C197.85156383 306.09635461 186.72052426 300.03943765 176 294 C175.34 293.67 174.68 293.34 174 293 C174 292.34 174 291.68 174 291 C173.28457031 290.731875 172.56914062 290.46375 171.83203125 290.1875 C168.95871061 288.98268693 166.36662374 287.58762888 163.6875 286 C162.80449219 285.484375 161.92148437 284.96875 161.01171875 284.4375 C160.34785156 283.963125 159.68398438 283.48875 159 283 C159 282.34 159 281.68 159 281 C158.16275391 280.83757812 158.16275391 280.83757812 157.30859375 280.671875 C150.49575884 278.68912102 144.79551567 274.0619332 140 269 C138.906875 268.278125 137.81375 267.55625 136.6875 266.8125 C135.800625 266.214375 134.91375 265.61625 134 265 C134 264.34 134 263.68 134 263 C133.43796875 262.7421875 132.8759375 262.484375 132.296875 262.21875 C129.73295421 260.85830223 127.54773635 259.27211038 125.25 257.5 C124.45078125 256.8915625 123.6515625 256.283125 122.828125 255.65625 C121.92320312 254.83640625 121.92320312 254.83640625 121 254 C121 253.34 121 252.68 121 252 C120.01 252 119.02 252 118 252 C118 251.34 118 250.68 118 250 C117.13375 249.62875 117.13375 249.62875 116.25 249.25 C113.67060021 247.81700012 111.93878408 246.21575324 110 244 C110 243.34 110 242.68 110 242 C109.40058594 241.73960937 108.80117187 241.47921875 108.18359375 241.2109375 C105.85061626 239.91715749 104.70222219 238.70531236 103.0625 236.625 C100.62898031 233.64657005 98.01554065 231.39469405 95 229 C95 228.34 95 227.68 95 227 C94.34 227 93.68 227 93 227 C88.58943247 222.72584177 84.95598296 217.67602436 81.3359375 212.734375 C79.96974952 210.8746664 79.96974952 210.8746664 77.9375 209 C75.58328091 206.56983836 74.03184092 203.91994106 72.34375 201 C71.03454686 198.90984492 71.03454686 198.90984492 69.0859375 197.1015625 C61.5222549 189.4812231 54.79787091 178.0625832 51 168 C50.34 168 49.68 168 49 168 C47.66180502 165.3773768 46.3292849 162.75213401 45 160.125 C44.6184375 159.37863281 44.236875 158.63226562 43.84375 157.86328125 C43.30234375 156.79013672 43.30234375 156.79013672 42.75 155.6953125 C42.41484375 155.03547363 42.0796875 154.37563477 41.734375 153.69580078 C41 152 41 152 41 150 C40.34 150 39.68 150 39 150 C37.66087415 146.87745057 36.32969342 143.75157642 35 140.625 C34.6184375 139.73554687 34.236875 138.84609375 33.84375 137.9296875 C33.4828125 137.07890625 33.121875 136.228125 32.75 135.3515625 C32.41484375 134.56604004 32.0796875 133.78051758 31.734375 132.97119141 C31 131 31 131 31 129 C30.34 129 29.68 129 29 129 C22.37199335 111.75699941 15.74532073 94.49544886 11.640625 76.4453125 C11.06371697 73.99489003 11.06371697 73.99489003 10.0390625 71.765625 C8.55125578 67.80559809 7.86764378 63.78153756 7.125 59.625 C6.87109497 58.22435303 6.87109497 58.22435303 6.61206055 56.79541016 C4.83948987 46.66293566 3.55689234 36.46793007 2.30712891 26.26025391 C2.15034668 24.98585449 1.99356445 23.71145508 1.83203125 22.3984375 C1.69514893 21.26067871 1.5582666 20.12291992 1.41723633 18.95068359 C1.0789022 16.55799413 0.59269451 14.33445162 0 12 C-0.06743348 9.91765408 -0.08514472 7.83331443 -0.0625 5.75 C-0.04896484 4.13351562 -0.04896484 4.13351562 -0.03515625 2.484375 C-0.02355469 1.66453125 -0.01195312 0.8446875 0 0 Z " fill="#406BFA" transform="translate(146,513)"/>
<path d="M0 0 C0.94375488 0.08008301 1.88750977 0.16016602 2.85986328 0.24267578 C18.18637218 1.54500046 33.51194452 3.42749802 48.58447266 6.52246094 C51.53497291 7.10576178 54.49522505 7.57799961 57.46679688 8.03930664 C65.60325475 9.3048756 73.51364511 11.01912204 81.4765625 13.1015625 C84.27616913 13.81543115 87.03496627 14.42377376 89.875 14.9375 C111.67496383 19.09162464 134.64207797 26.32492584 154.6484375 35.89453125 C156.98551212 36.99318925 159.34128195 37.94525053 161.75 38.875 C187.69043018 49.08647093 187.69043018 49.08647093 198 57 C198.86625 57.4125 199.7325 57.825 200.625 58.25 C204.46962419 60.24350884 207.82470931 62.64958435 211.33984375 65.16796875 C213.93633362 66.95615341 216.58240737 68.55041603 219.3125 70.125 C223.11748187 72.35448156 225.95752684 74.78367123 229 78 C230.65948148 79.01187895 232.32580562 80.0126546 234 81 C235.35500919 82.31129922 236.68671343 83.64691687 238 85 C238.969375 85.804375 239.93875 86.60875 240.9375 87.4375 C245.85907352 91.55555131 249.90032491 96.08038989 254 101 C256.22836564 103.28142197 258.47865101 105.51460611 260.8125 107.6875 C262 109 262 109 262 111 C262.66 111 263.32 111 264 111 C265.4375 113.15234375 265.4375 113.15234375 267 115.9375 C268.86077895 119.62387208 268.86077895 119.62387208 272 122 C274.66971326 126.36956975 276.53200483 131.10668277 278 136 C278.66 136 279.32 136 280 136 C287 154.05076142 287 154.05076142 287 163 C287.66 163 288.32 163 289 163 C292.30499147 180.23316983 290.81908003 195.86559158 288 213 C287.34 213 286.68 213 286 213 C285.91363281 213.58265625 285.82726562 214.1653125 285.73828125 214.765625 C283.15478096 229.83999365 275.30863911 242.75345019 266.3828125 254.94140625 C264.83681947 257.04539557 264.83681947 257.04539557 264 260 C262.3563186 261.68933922 260.6857124 263.35259924 259 265 C258.0933059 266.09526581 257.19720618 267.19939786 256.3125 268.3125 C255.549375 269.199375 254.78625 270.08625 254 271 C253.34 271 252.68 271 252 271 C251.34 272.32 250.68 273.64 250 275 C249.34 275 248.68 275 248 275 C247.7328418 275.59619141 247.46568359 276.19238281 247.19042969 276.80664062 C245.98007331 279.0367148 244.80441913 280.37889036 242.953125 282.09375 C242.0559375 282.92712891 242.0559375 282.92712891 241.140625 283.77734375 C240.20476562 284.63005859 240.20476562 284.63005859 239.25 285.5 C238.6415625 286.06847656 238.033125 286.63695312 237.40625 287.22265625 C233.80127355 290.54262388 230.15286479 293.36966293 226 296 C224.35006008 297.13991212 222.70402638 298.28550498 221.0625 299.4375 C220.20140625 300.04078125 219.3403125 300.6440625 218.453125 301.265625 C216.39273261 302.72233555 214.35073217 304.20014139 212.3125 305.6875 C209.67106069 307.57859974 206.94973963 309.22068303 204.1015625 310.7890625 C202.48705942 311.71935238 200.90379231 312.70401608 199.3359375 313.7109375 C191.37840702 318.80778614 183.20696446 322.88490897 174.63671875 326.8359375 C170.65055084 328.67570731 166.76590901 330.65473511 162.875 332.6875 C156.5040419 335.90635427 149.99673097 338.23856481 143.25390625 340.5234375 C139.10847057 341.93646075 135.05396907 343.53270334 131 345.1875 C115.395957 351.49199669 115.395957 351.49199669 109 351 C109 351.66 109 352.32 109 353 C107.81857422 353.25523437 107.81857422 353.25523437 106.61328125 353.515625 C101.08290387 354.74605216 95.68147677 356.06075785 90.3125 357.875 C74.61363127 362.83652425 57.85432463 364.93217665 41.64892578 367.65625 C37.52253343 368.35499489 33.43381176 369.10494704 29.35546875 370.046875 C25.21342543 370.99113479 21.0953035 371.59692206 16.875 372.0625 C15.77333496 372.18818359 15.77333496 372.18818359 14.64941406 372.31640625 C8.77279131 372.96458179 2.89446341 373.37516637 -3.0078125 373.71875 C-5.78466837 373.89567262 -8.5399863 374.15516404 -11.3046875 374.46875 C-28.49846842 376.39150309 -45.73800311 376.65730849 -63.02154541 376.96356201 C-64.73889099 376.99519105 -66.45613038 377.03248791 -68.17333984 377.07080078 C-110.48284001 377.98739108 -154.49387903 373.73574994 -195.80126953 364.68896484 C-198.92189891 364.01682196 -202.04783946 363.39799554 -205.18359375 362.80078125 C-206.59366699 362.53116577 -206.59366699 362.53116577 -208.03222656 362.25610352 C-209.72779965 361.93292192 -211.42373009 361.61160588 -213.12011719 361.29272461 C-216.7209608 360.58476078 -219.78167887 359.75742031 -223 358 C-224.36380894 357.64180115 -225.74067344 357.33068134 -227.125 357.0625 C-232.18413175 356.00264916 -237.06467315 354.52324903 -242 353 C-242.7233252 352.78706299 -243.44665039 352.57412598 -244.19189453 352.35473633 C-250.18916699 350.58507818 -256.10365858 348.64268717 -262 346.5625 C-262.87720703 346.25393066 -263.75441406 345.94536133 -264.65820312 345.62744141 C-270.50145849 343.55967736 -276.28250442 341.39543349 -282 339 C-282.91265625 338.63519531 -283.8253125 338.27039063 -284.765625 337.89453125 C-291.60367957 335.12887829 -298.17832087 331.97016643 -304.74609375 328.625 C-307.39019709 327.30453543 -310.03022567 326.08872723 -312.75 324.9375 C-316.94500783 323.12070293 -320.77240458 320.83364895 -324.66015625 318.4375 C-326.60622816 317.24191659 -328.56552463 316.10686857 -330.5625 315 C-334.83896264 312.51187628 -338.91687311 309.79125232 -343 307 C-343.80695313 306.45214844 -344.61390625 305.90429688 -345.4453125 305.33984375 C-355.12128707 298.68192395 -364.78349735 291.4262857 -373 283 C-373 282.34 -373 281.68 -373 281 C-373.556875 280.79375 -374.11375 280.5875 -374.6875 280.375 C-377.29489502 278.82465702 -378.85768779 276.9201718 -380.7265625 274.55859375 C-382.09981435 272.8174997 -382.09981435 272.8174997 -384.3125 270.75 C-398 256.74418605 -398 256.74418605 -398 251 C-398.66 251 -399.32 251 -400 251 C-401.27339482 248.48043257 -402.54376642 245.95941351 -403.8125 243.4375 C-404.34713867 242.38079102 -404.34713867 242.38079102 -404.89257812 241.30273438 C-408.14167366 234.83435152 -411.00491574 228.37368117 -413.125 221.4375 C-413.45757812 220.36371094 -413.79015625 219.28992188 -414.1328125 218.18359375 C-415.41720349 213.46837457 -416.13654486 209.01196058 -416.0625 204.125 C-416.05347656 203.34382812 -416.04445313 202.56265625 -416.03515625 201.7578125 C-416.02355469 201.17773438 -416.01195312 200.59765625 -416 200 C-416.66 200 -417.32 200 -418 200 C-418.47060651 173.54145624 -413.37879419 151.82844558 -400.109375 128.91650391 C-398.39322415 125.95176268 -396.69791681 122.97521331 -395 120 C-394.34 120 -393.68 120 -393 120 C-392.731875 119.195625 -392.46375 118.39125 -392.1875 117.5625 C-391.795625 116.716875 -391.40375 115.87125 -391 115 C-389.515 114.505 -389.515 114.505 -388 114 C-387.28752268 112.3523962 -386.62599617 110.68236471 -386 109 C-384.5 106.6875 -384.5 106.6875 -383 105 C-382.34 105 -381.68 105 -381 105 C-380.34 103.68 -379.68 102.36 -379 101 C-378.34 101 -377.68 101 -377 101 C-376.731875 100.360625 -376.46375 99.72125 -376.1875 99.0625 C-375 97 -375 97 -372 96 C-371.505 94.515 -371.505 94.515 -371 93 C-368.84765625 91.01953125 -368.84765625 91.01953125 -366.0625 88.8125 C-365.06089844 88.01457031 -364.05929687 87.21664062 -363.02734375 86.39453125 C-362.02832031 85.60433594 -361.02929688 84.81414062 -360 84 C-359.17628906 83.32324219 -358.35257813 82.64648438 -357.50390625 81.94921875 C-350.93462948 76.56651085 -344.04542439 71.72830059 -337 67 C-336.0821875 66.37996094 -335.164375 65.75992188 -334.21875 65.12109375 C-328.11664285 61.10985567 -321.83879944 57.81808092 -315.26171875 54.67578125 C-311.97039953 53.06335814 -311.97039953 53.06335814 -308.984375 50.984375 C-305.93172928 48.95460533 -302.9024326 47.4410711 -299.5625 45.9375 C-298.49128906 45.45152344 -297.42007813 44.96554687 -296.31640625 44.46484375 C-279.2756687 36.93801621 -261.86686717 30.28084744 -244 25 C-241.99841083 24.33811992 -239.99846333 23.67125908 -238 23 C-226.68502762 19.37968677 -215.42982628 15.84866502 -203.76123047 13.55102539 C-200.97130352 12.99427339 -198.18859836 12.4098106 -195.40625 11.81640625 C-185.98365789 9.81203733 -176.56645967 7.83297266 -167.0625 6.25 C-166.37285156 6.13470947 -165.68320312 6.01941895 -164.97265625 5.90063477 C-160.71774424 5.21450943 -156.46236429 4.6981512 -152.17358398 4.27246094 C-149.75111307 3.96880177 -147.39284329 3.48280093 -145 3 C-97.50265103 -4.07191345 -47.75088908 -4.35909769 0 0 Z M-114 45 C-115.22847656 45.1124707 -116.45695313 45.22494141 -117.72265625 45.34082031 C-130.35822331 46.52662973 -142.90184542 47.92362694 -155.3671875 50.328125 C-158.74264141 50.9524025 -162.09313686 51.40203456 -165.5 51.8125 C-176.49877748 53.33131852 -187.24844829 56.2834766 -198 59 C-198.91668457 59.23154785 -199.83336914 59.4630957 -200.77783203 59.70166016 C-219.38372877 64.40694774 -219.38372877 64.40694774 -237.390625 70.97265625 C-239.665576 71.86833307 -241.93674403 72.65711976 -244.2578125 73.421875 C-256.18324443 77.35564536 -267.56074751 81.98745078 -278.5390625 88.09375 C-281.73579626 89.85447921 -284.96484312 91.47481493 -288.25 93.0625 C-297.13179511 97.47977576 -305.20239511 103.1001637 -313.375 108.6875 C-314.05336914 109.15115967 -314.73173828 109.61481934 -315.43066406 110.0925293 C-320.87834812 113.83377249 -320.87834812 113.83377249 -326 118 C-326 118.66 -326 119.32 -326 120 C-326.556875 120.2475 -327.11375 120.495 -327.6875 120.75 C-330.42410913 122.22924818 -332.67650869 123.93467439 -335 126 C-335 126.66 -335 127.32 -335 128 C-335.66 128 -336.32 128 -337 128 C-348.21688663 138.1320064 -355.81027233 151.39955729 -362 165 C-362.495 165.99 -362.495 165.99 -363 167 C-363.039992 168.99960012 -363.04346799 171.00047242 -363 173 C-363.66 173 -364.32 173 -365 173 C-367.3092853 186.9495852 -367.0540517 200.70906819 -362 214 C-361.69964844 214.8146875 -361.39929688 215.629375 -361.08984375 216.46875 C-357.43853202 225.44686716 -351.59380002 234.8754297 -345 242 C-344.34 242 -343.68 242 -343 242 C-343 242.66 -343 243.32 -343 244 C-342.34 244 -341.68 244 -341 244 C-340.7525 244.556875 -340.505 245.11375 -340.25 245.6875 C-334.46815853 256.38390672 -322.37186898 263.00089073 -312.65136719 269.83349609 C-311.14809849 270.89538519 -309.65546401 271.97228842 -308.1640625 273.05078125 C-304.02758806 276.02267904 -299.98519917 278.68197801 -295.375 280.84765625 C-292.79448185 282.09971687 -290.27737223 283.45466072 -287.7565918 284.82226562 C-269.96981513 294.45388449 -251.28953191 301.9913785 -232.125 308.4375 C-231.43124268 308.67210937 -230.73748535 308.90671875 -230.02270508 309.1484375 C-225.65587593 310.57917857 -221.28604099 311.64894194 -216.78076172 312.55493164 C-215 313 -215 313 -214 314 C-210.94478589 314.65926322 -207.88381067 315.23996076 -204.81054688 315.80664062 C-201.83710424 316.37315043 -198.9887444 317.00381866 -196.12011719 317.97705078 C-193.15784551 318.9482494 -190.30787711 319.61341927 -187.24609375 320.18359375 C-186.1566748 320.38734619 -185.06725586 320.59109863 -183.94482422 320.80102539 C-182.20869873 321.11608032 -182.20869873 321.11608032 -180.4375 321.4375 C-179.22078613 321.65849365 -178.00407227 321.8794873 -176.75048828 322.10717773 C-142.17714602 328.30711538 -107.12624792 331.67959962 -72 332 C-71.30819641 332.00813721 -70.61639282 332.01627441 -69.90362549 332.0246582 C-67.73913837 332.04865084 -65.57473182 332.06457174 -63.41015625 332.078125 C-62.11343994 332.0874707 -60.81672363 332.09681641 -59.48071289 332.10644531 C-56.47581303 332.01455106 -53.92558298 331.59627286 -51 331 C-48.88857656 330.95139639 -46.77573272 330.95194778 -44.6640625 330.98828125 C-36.87673493 331.04203592 -29.14444843 330.68212687 -21.375 330.1875 C-20.6772345 330.14398407 -19.97946899 330.10046814 -19.26055908 330.05563354 C-8.54450631 329.37513044 1.98247364 328.19979754 12.56787109 326.39111328 C16.21691408 325.80430673 19.88047245 325.34439785 23.54589844 324.87280273 C31.42179582 323.85739448 39.12527229 322.69683112 46.8359375 320.75390625 C51.36718952 319.67423756 55.94396623 318.87424011 60.53466797 318.08984375 C64.26678471 317.42652383 67.4972429 316.40433119 71 315 C73.72656428 314.38224084 76.44831336 313.80374712 79.1875 313.25 C88.730906 311.21878233 97.82598145 308.29361277 107 305 C107.99265869 304.64832764 107.99265869 304.64832764 109.00537109 304.28955078 C128.51266642 297.34611007 148.04559963 289.29500236 165.69921875 278.40234375 C167.97633475 277.01442415 170.28545375 275.71687708 172.625 274.4375 C179.6722634 270.54850051 187.01149153 266.43106752 193 261 C193 260.34 193 259.68 193 259 C193.56074219 258.92007813 194.12148438 258.84015625 194.69921875 258.7578125 C197.76736807 257.74725059 199.4511055 256.06905158 201.8125 253.875 C202.68261719 253.06675781 203.55273438 252.25851562 204.44921875 251.42578125 C205.29097656 250.62527344 206.13273438 249.82476563 207 249 C207.72832031 248.31292969 208.45664062 247.62585938 209.20703125 246.91796875 C211.69240054 244.54177162 211.69240054 244.54177162 214 242 C214 241.34 214 240.68 214 240 C214.99 239.67 215.98 239.34 217 239 C232.18953142 221.52835805 240.37521105 201.35578879 239.16845703 178.12451172 C238.42221578 168.71321984 235.34074552 160.30728885 231 152 C230.38898438 150.80503906 230.38898438 150.80503906 229.765625 149.5859375 C226.68161047 144.01657008 222.85424754 139.21273634 218.75 134.375 C217.95227173 133.4317688 217.95227173 133.4317688 217.13842773 132.46948242 C215.80617789 130.93727811 214.40804865 129.46285293 213 128 C212.34 128 211.68 128 211 128 C210.814375 127.278125 210.62875 126.55625 210.4375 125.8125 C208.69078985 122.39502361 206.73433656 121.14021066 203.55859375 119.11328125 C202 118 202 118 201 116 C200.34 116 199.68 116 199 116 C198.67 115.01 198.34 114.02 198 113 C195.18490007 110.7226499 195.18490007 110.7226499 192 111 C191.67 110.01 191.34 109.02 191 108 C189.21318259 106.54858116 189.21318259 106.54858116 187.0625 105.3125 C186.35222656 104.87550781 185.64195312 104.43851563 184.91015625 103.98828125 C183.06239008 102.84682609 183.06239008 102.84682609 181 103 C181 102.34 181 101.68 181 101 C180.32195313 100.63648438 179.64390625 100.27296875 178.9453125 99.8984375 C174.33267902 97.40684878 169.76851919 94.88818737 165.3125 92.125 C154.61834175 85.67133736 143.47177598 80.5799818 131.73046875 76.3671875 C128.44552661 75.163282 125.26414425 73.84395218 122.0625 72.4375 C115.22631782 69.5395532 108.15337984 67.59678326 101.02050781 65.58203125 C98.142722 64.7530509 95.2916663 63.84403421 92.4375 62.9375 C72.39049047 56.75778066 51.54198523 52.3301678 30.77880859 49.39453125 C28.77038603 49.1093783 26.76301704 48.81677085 24.75634766 48.51953125 C-21.03718671 41.75696073 -67.89116057 40.70149957 -114 45 Z " fill="#0A1534" transform="translate(564,313)"/>
<path d="M0 0 C1.3665381 1.19214181 2.70088111 2.42222589 4 3.6875 C4.69480469 4.35523438 5.38960937 5.02296875 6.10546875 5.7109375 C16.2863648 16.29295704 20.41531603 28.55459964 20.1875 43.03515625 C19.95861827 47.49358165 19.37640642 51.44816824 18 55.6875 C17.74347656 56.49574219 17.48695313 57.30398438 17.22265625 58.13671875 C13.02227971 69.90858949 4.11799525 79.69499858 -6.9375 85.5 C-8.61225065 86.25799112 -10.29983703 86.98836756 -12 87.6875 C-12.74507812 88.0071875 -13.49015625 88.326875 -14.2578125 88.65625 C-24.85888247 92.53731968 -37.78760544 92.08720199 -48.2265625 88.01171875 C-62.08446898 81.39505636 -72.04132935 71.84468858 -77.8125 57.5 C-81.67073422 45.1130375 -81.49605956 31.49024737 -76 19.6875 C-68.88665113 6.28919226 -58.71483349 -2.95909592 -44.375 -8.25 C-28.99787606 -12.14356664 -12.83912323 -9.39340981 0 0 Z " fill="#0A1534" transform="translate(672,459.3125)"/>
<path d="M0 0 C11.50560998 8.52559779 19.32584653 19.46157136 22.65234375 33.5 C23.24273623 41.6092144 23.17764887 49.72206023 20.65234375 57.5 C20.39582031 58.30824219 20.13929688 59.11648438 19.875 59.94921875 C15.63190253 71.84081809 6.64289763 81.66286118 -4.59765625 87.375 C-6.1690868 88.10936134 -7.75253032 88.81863826 -9.34765625 89.5 C-10.12625 89.85320312 -10.90484375 90.20640625 -11.70703125 90.5703125 C-23.36269162 94.67393257 -37.26579965 93.66037004 -48.34765625 88.5 C-62.18434768 81.1539071 -71.66605 70.53042006 -76.34765625 55.5 C-78.87797432 40.35398261 -77.6651906 27.0522466 -68.97265625 14.0625 C-52.61456635 -7.43167835 -23.71826895 -15.15443474 0 0 Z " fill="#0A1534" transform="translate(385.34765625,457.5)"/>
<path d="M0 0 C0.66 0 1.32 0 2 0 C2.53494014 2.99808258 3.05319496 5.99754673 3.5625 9 C3.71396484 9.83917969 3.86542969 10.67835938 4.02148438 11.54296875 C4.9324854 17.00897489 4.95486647 21.53639316 4 27 C1.32299024 24.32299024 1.6463457 22.665618 1.4375 18.9375 C1.54118059 15.15176774 1.54118059 15.15176774 0 12 C-0.07244053 9.98035801 -0.08377188 7.95832876 -0.0625 5.9375 C-0.05347656 4.83277344 -0.04445312 3.72804688 -0.03515625 2.58984375 C-0.02355469 1.73519531 -0.01195312 0.88054688 0 0 Z " fill="#3E88F6" transform="translate(146,513)"/>
<path d="M0 0 C0.33 0 0.66 0 1 0 C1.23476599 7.49946928 0.95693523 14.7996806 0.125 22.25 C0.04652832 23.00079834 -0.03194336 23.75159668 -0.11279297 24.52514648 C-0.33352307 26.36068036 -0.65776459 28.18319476 -1 30 C-1.66 30.33 -2.32 30.66 -3 31 C-2.58426348 20.54094451 -2.11435999 10.28441121 0 0 Z " fill="#4682FA" transform="translate(853,514)"/>
<path d="M0 0 C0.33 0 0.66 0 1 0 C1.22144475 5.53611872 0.86461526 9.73520397 -1 15 C-1.44911499 17.99080969 -1.74555958 20.98688976 -2 24 C-2.33 24 -2.66 24 -3 24 C-3.08728882 20.75017 -3.14048658 17.5006425 -3.1875 14.25 C-3.21263672 13.32960938 -3.23777344 12.40921875 -3.26367188 11.4609375 C-3.27333984 10.57148438 -3.28300781 9.68203125 -3.29296875 8.765625 C-3.3086792 7.94868164 -3.32438965 7.13173828 -3.34057617 6.29003906 C-2.92127785 3.47067111 -1.89642359 2.09041348 0 0 Z " fill="#3589F5" transform="translate(149,469)"/>
<path d="M0 0 C0.33 0.66 0.66 1.32 1 2 C-0.07518118 4.44332726 -1.19808566 6.76754523 -2.4375 9.125 C-2.77587891 9.78371094 -3.11425781 10.44242188 -3.46289062 11.12109375 C-4.30149926 12.75106547 -5.14984811 14.37601909 -6 16 C-6.99 16 -7.98 16 -9 16 C-6.03 10.72 -3.06 5.44 0 0 Z " fill="#4D81FA" transform="translate(813,663)"/>
<path d="M0 0 C0.66 0 1.32 0 2 0 C2.33 4.62 2.66 9.24 3 14 C2.01 13.34 1.02 12.68 0 12 C-0.29296875 9.1796875 -0.29296875 9.1796875 -0.1875 5.875 C-0.16042969 4.77929688 -0.13335937 3.68359375 -0.10546875 2.5546875 C-0.07066406 1.71164062 -0.03585938 0.86859375 0 0 Z " fill="#2F7BD2" transform="translate(146,513)"/>
<path d="M0 0 C0.99 0.33 1.98 0.66 3 1 C4.1577506 4.47325181 4.06866652 7.36067448 4 11 C3.34 11 2.68 11 2 11 C1.34 7.37 0.68 3.74 0 0 Z " fill="#3563CE" transform="translate(849,465)"/>
<path d="M0 0 C0.66 0 1.32 0 2 0 C1.33501617 4.38889325 -0.18757677 7.9811485 -2 12 C-3.15957207 8.52128379 -2.77456651 7.65780355 -1.5625 4.3125 C-1.13130859 3.10013672 -1.13130859 3.10013672 -0.69140625 1.86328125 C-0.46324219 1.24839844 -0.23507813 0.63351562 0 0 Z " fill="#478AFA" transform="translate(173,362)"/>
<path d="M0 0 C0 0.66 0 1.32 0 2 C-2.8125 4.1875 -2.8125 4.1875 -6 6 C-6.99 5.67 -7.98 5.34 -9 5 C-2.87096774 0 -2.87096774 0 0 0 Z " fill="#4F78F7" transform="translate(695,795)"/>
<path d="M0 0 C0.99 0.33 1.98 0.66 3 1 C2.34 1 1.68 1 1 1 C0.67 1.99 0.34 2.98 0 4 C-1.98 4.33 -3.96 4.66 -6 5 C-5.195625 4.360625 -4.39125 3.72125 -3.5625 3.0625 C-1.7249496 1.59396498 -1.7249496 1.59396498 0 0 Z " fill="#48B9FE" transform="translate(312,199)"/>
</svg>
